# xmcd CD database file generated by Grip 2.91
# 
# Track frame offsets:
#       150
#       18500
#       45538
#       63590
#       84788
#       93025
#       116458
#       147655
#       159278
#       173050
# 
# Disc length: 2610 seconds
# 
# Revision: 3
# Processed by: cddbd v1.4b41PL1 Copyright (c) Steve Scherf et al.
# Submitted via: Grip 2.91
# 
DISCID=730a300a
DTITLE=Michael Bloomfield - The Best Of Michael Bloomfield
DYEAR=1900
DGENRE=
TTITLE0=Knockin' Myself Out
TTITLE1=Sloppy Drunk
TTITLE2=You Took My Money
TTITLE3=The Gospel Truth
TTITLE4=Lights Out
TTITLE5=Orphan's Blues
TTITLE6=Your Friends
TTITLE7=Junker's Blues
TTITLE8=It'll Be Me
TTITLE9=Snow Blind
EXTD=
EXTT0=
EXTT1=
EXTT2=
EXTT3=
EXTT4=
EXTT5=
EXTT6=
EXTT7=
EXTT8=
EXTT9=
PLAYORDER=
